<?xml version="1.0" encoding="UTF-8"?>
<svg width="128px" height="128px" viewBox="0 0 128 128" version="1.1" xmlns="http://www.w3.org/2000/svg" xmlns:xlink="http://www.w3.org/1999/xlink">
    <!-- Generator: Sketch 52.2 (67145) - http://www.bohemiancoding.com/sketch -->
    <title>头像</title>
    <desc>Created with Sketch.</desc>
    <g id="UI-PersonalCenter" stroke="none" stroke-width="1" fill="none" fill-rule="evenodd">
        <g id="PersonalCenter" transform="translate(-815.000000, -516.000000)">
            <g id="头像" transform="translate(815.000000, 516.000000)">
                <circle id="Mask" fill="#078E71" opacity="0.300000012" cx="64" cy="64" r="64"></circle>
                <path d="M21.5005806,111.852772 C27.4426807,109.401819 39.6356967,105.054204 47.5282479,102.72443 C48.1901188,102.513968 48.3104589,102.483902 48.3104589,99.5073707 C48.3104589,96.3203775 47.9494385,94.0654294 47.1672274,92.4118009 C46.1142509,90.1267868 44.8506792,86.3384741 44.3994035,82.9109531 C43.1358318,81.4377204 41.4209844,78.5513869 40.3078379,73.0192476 C39.3150315,68.1485599 39.7963922,66.3746674 40.4281781,64.7210388 C40.4883481,64.540643 40.5485182,64.3903131 40.6086883,64.1798513 C40.8493686,63.0373443 40.5184332,57.1143474 39.676052,52.5142534 C39.1044362,49.3573261 39.8264772,42.6526139 44.1888083,37.0904087 C46.9566321,33.5726898 52.1914293,29.2732555 61.6381324,28.671936 L66.9030146,28.671936 C76.5001429,29.2732555 81.7650252,33.5726898 84.5027639,37.0904087 C88.8350099,42.6526139 89.5570509,49.3573261 88.9854351,52.5142534 C88.143054,57.1143474 87.8121185,63.0373443 88.0527988,64.1798513 C88.0828839,64.3301812 88.173139,64.510577 88.2333091,64.6909729 C88.865095,66.3446014 89.3163706,68.1184939 88.3536493,72.9891817 C87.2705878,78.5213209 85.5256554,81.4076544 84.2620836,82.8808871 C83.810808,86.3084081 82.5773213,90.1267868 81.4942598,92.3817349 C80.5014534,94.4863531 79.508647,96.9517629 79.508647,99.3871068 C79.508647,102.333572 79.5989022,102.393704 80.3209432,102.604166 C87.8138107,104.822868 100.144833,109.062586 106.735375,111.642022 C95.4043741,121.812824 80.4247332,128 64,128 C47.6890175,128 32.8031805,121.898227 21.5005806,111.852772 Z" id="合并形状" fill="#078E71"></path>
                <path d="M80.9377542,73.6440828 C78.9012719,74.0505469 73.9988251,75 72.4312736,75 C71.3417402,75 70.4590164,74.767295 69.6973518,74.306836 C69.1172762,73.9553029 68.7187894,73.5641603 68.1084489,72.8561429 C68.1185372,72.8660452 67.8814628,72.5887796 67.8209332,72.5145121 C67.2912989,71.9005668 66.9281211,71.5737895 66.4388398,71.3064263 C65.7982346,70.9598443 64.9709962,70.776651 63.8259773,70.776651 C62.6809584,70.776651 61.8587642,70.9647955 61.223203,71.3064263 C60.738966,71.5688384 60.3808323,71.8956157 59.8562421,72.5095609 C59.7957125,72.5788773 59.5737705,72.8462405 59.5889029,72.8264358 C58.9785624,73.5493068 58.5800757,73.9404494 57.9949559,74.2969337 C57.2282472,74.7623438 56.3303909,75 55.220681,75 C53.6051152,75 48.4959203,73.9942063 46.570822,73.615248 C44.5009572,73.0174882 42.2995036,72.2325353 39.962169,71.2519634 C38.7717528,70.7518951 38,69.6081746 38,68.3357236 L38,51.2838899 C38,49.1994468 39.5485498,47.4269275 41.6469105,47.1100526 C43.0844893,46.8922011 55.9873897,46 63.8259773,46 C71.7099622,46 84.5674653,46.8872499 86.0050441,47.1051014 C88.1034048,47.4219764 89.6519546,49.1944957 89.6519546,51.2789387 L89.6519546,63.6568668 C89.8638083,63.8499624 90,64.127228 90,64.4342006 C90,64.7461244 89.8638083,65.0184388 89.6519546,65.2115345 L89.6519546,68.3307724 C89.6519546,69.6032234 88.8751576,70.7518951 87.6796974,71.2519634 C85.2849957,72.2469885 83.0376813,73.0413411 80.9377542,73.6440828 Z" id="合并形状" fill="#FFFFFF" fill-rule="nonzero"></path>
            </g>
        </g>
    </g>
</svg>